{"accessors" : [{"bufferView" : 0, "byteOffset" : 0, "componentType" : 5123, "count" : 36, "type" : "SCALAR", "max" : [21], "min" : [0]}, {"bufferView" : 1, "byteOffset" : 0, "componentType" : 5126, "count" : 22, "type" : "VEC3", "max" : [51.125, 28.625, -0], "min" : [0, 0, -68.8125]}, {"bufferView" : 1, "byteOffset" : 12, "componentType" : 5126, "count" : 22, "type" : "VEC2", "max" : [51.125, 1], "min" : [-68.8125, -68.8125]}, {"bufferView" : 1, "byteOffset" : 20, "componentType" : 5126, "count" : 22, "type" : "VEC3", "max" : [1.0000044107437134, 1.0000044107437134, 1.0000044107437134], "min" : [-1.0000044107437134, -1.0000044107437134, -1.0000044107437134]}], "asset" : {"generator" : "Aspose.3D 20.12.3", "version" : "2.0"}, "buffers" : [{"uri" : "buffer.bin", "byteLength" : 1232}], "bufferViews" : [{"buffer" : 0, "byteOffset" : 0, "byteLength" : 72, "target" : 34963}, {"buffer" : 0, "byteOffset" : 76, "byteLength" : 1152, "byteStride" : 32, "target" : 34962}], "meshes" : [{"primitives" : [{"attributes" : {"POSITION" : 1, "TEXCOORD_0" : 2, "NORMAL" : 3}, "indices" : 0, "mode" : 4}]}], "nodes" : [{"mesh" : 0, "name" : "Mesh1 Group1 Model"}], "scene" : 0, "scenes" : [{"nodes" : [0]}]}